<svg xmlns="http://www.w3.org/2000/svg" viewBox="0 0 100 100" preserveAspectRatio="xMidYMid" width="200" height="200" style="shape-rendering: auto; display: block; background: rgb(255, 255, 255);"><g data-idx="1"><g transform="matrix(1,0,0,1,50,50)" data-idx="2">
<g transform="matrix(1,0,0,-1,0,0)" data-idx="3">
<g transform="matrix(1,0,0,1,-50,-50)" data-idx="4">
<g data-idx="5" transform="matrix(0.9940020562889249,-0.10936138300784674,0.10936138300784674,0.9940020562889249,-5.168171964838585,5.767966335946092)">
  
  <circle stroke-dasharray="15.2308px, 300px" fill="none" stroke-width="14.4" stroke="#f2f2f2" r="39.891" cy="50" cx="50" data-idx="7">
    
  </circle>
  <circle stroke-dasharray="15.2308px, 300px" fill="none" stroke-width="7.2" stroke="#f2f2f2" r="39.891" cy="50" cx="50" data-idx="9">
    
  </circle>
  <circle stroke-dasharray="13.0835px, 300px" fill="none" stroke-width="1" stroke="#000000" r="32.771" cy="50" cx="50" data-idx="11">
    
  </circle>
  <circle stroke-dasharray="17.6074px, 300px" fill="none" stroke-width="1" stroke="#000000" r="47.171" cy="50" cx="50" data-idx="13">
    
  </circle>
</g></g> </g></g>
<g data-idx="15" transform="matrix(0.9957827231287825,0.09174294696720056,-0.09174294696720056,0.9957827231287825,4.7980111919209065,-4.376283504799147)">
  
  <path d="M82.8,50c0,0.9,0.7,2.6,1.8,3.7c0.3,0.3,0.8,0.6,1,1c0.2,0.5,0.2,1-0.1,1.5c-0.3,0.5-0.8,0.9-1.1,1.3 c-0.5,0.5-0.8,1.1-0.9,1.7c-0.2,0.6-0.2,1.2,0.2,1.8c0.6,1,2,1.7,2,2.8c-0.1,0.9-1,1.5-1.4,2.2c-0.3,0.6-0.4,1.2-0.2,1.9 c0.2,0.7,0.5,1.3,1,1.8c1,1,2.4,1.4,3.9,1.5c-1.1-1-1.2-2.7-0.5-4c0.7-1.2,2.2-1.9,2.5-3.3c0.2-1.2-0.4-2.5,0.1-3.6 c0.7-1.5,3.3-1.3,4.1-2.9c0.3-0.9,0-1.9,0.3-2.8c0.2-0.7,0.6-1.1,1-1.5c0.4-0.4,0.8-0.9,0.9-1.6c0.1-0.5,0.1-0.9,0.1-1.6" stroke="#000000" fill="#f2f2f2" data-idx="17"></path>

</g>
<g data-idx="18" transform="matrix(1,-2.4492935982947064e-16,2.4492935982947064e-16,1,-1.4210854715202004e-14,1.4210854715202004e-14)">
  
  <path d="M82.8,50c-0.1-3.1-0.4-6.2-1.3-9.2c-0.1-0.4-0.2-0.8-0.2-1.2c-0.1-0.4-0.1-0.8,0-1.2c0.1-0.8,0.3-1.6,0.7-2.4 c0.8-1.5,2-3,3.8-3.9l0,0c1.8-0.9,3.8-1,5.6-0.2c0.9,0.4,1.7,1,2.4,1.8c0.3,0.4,0.7,0.8,1,1.3c0.2,0.5,0.4,1,0.6,1.6 c1.4,4.3,1.9,8.8,1.9,13.3" stroke="#000000" fill="#f2f2f2" data-idx="20"></path>
  <path d="M93.6,35.5c0.1,0.4-0.3,0.8-1,1c-0.6,0.2-1.2,0.1-1.3-0.3c-0.1-0.3,0.3-0.8,0.9-1S93.5,35.1,93.6,35.5z" fill="#ff7bac" data-idx="21"></path>
  <path d="M82.3,39.3c0.1,0.3,0.6,0.3,1.3,0.1c0.6-0.2,1.1-0.6,1-0.9c-0.1-0.3-0.7-0.3-1.3-0.1 C82.6,38.6,82.2,39,82.3,39.3z" fill="#ff7bac" data-idx="22"></path>
  <path d="M88.9,37.5c0.1,0.3-0.2,0.7-0.7,0.8c-0.5,0.1-0.9,0-1-0.3c-0.1-0.3,0.2-0.7,0.7-0.8C88.4,37,88.9,37.2,88.9,37.5z" fill="#000000" data-idx="23"></path>
  <path d="M86.2,39.6c0.2,0.6,0.8,0.9,1.4,0.7c0.6-0.2,0.9-0.9,0.6-2.1c0.3,1.2,1,1.7,1.6,1.5c0.6-0.2,1-0.8,0.8-1.4" stroke="#000000" fill="none" data-idx="24"></path>
  <path d="M82.5,45.9c0,0.5,0.1,0.9,0.5,1.3c0.4,0.4,1,0.6,1.6,0.3c0.3-0.1,0.5-0.3,0.7-0.4c0.5-0.2,1.2,0.1,1.5,0.6 c0.3,0.5,0.3,1,0.3,1.6c0.6-0.6,1-1.4,1.3-2.2c0.2-0.7,0.4-1.5,0.2-2.2c-0.2-0.7-0.8-1.3-1.5-1.5c-0.9-0.2-1.8,0.2-2.5,0.7" stroke="#000000" fill="#f2f2f2" data-idx="25"></path>
  <path d="M96.8,44.1c0.1,0.7,0.1,1.4-0.2,2c-0.3,0.6-0.9,1-1.5,0.7c-0.3-0.1-0.5-0.4-0.8-0.4c-0.6-0.2-1.2,0.3-1.4,0.9 c-0.2,0.6-0.1,1.2-0.1,1.9c-0.6-0.7-1.2-1.5-1.6-2.3c-0.4-0.7-0.6-1.5-0.6-2.2c0-0.8,0.3-1.6,0.9-2c0.7-0.5,1.7-0.5,2.6-0.1" stroke="#000000" fill="#f2f2f2" data-idx="26"></path>
  <path d="M85.3,37.2c0.1,0.3,1.2,0.2,2.5-0.3c1.3-0.4,2.2-1.1,2.1-1.4c-0.1-0.3-1.2-0.2-2.5,0.3 C86.1,36.3,85.2,36.9,85.3,37.2z" fill="#b5b5b5" data-idx="27"></path>
  <path d="M91.5,35c0.3,0.7,0,1.4-0.7,1.6c-0.6,0.2-1.3-0.1-1.6-0.8c-0.2-0.6,0.1-1.3,0.7-1.6C90.6,33.9,91.3,34.3,91.5,35z" fill="#000000" data-idx="28"></path>
  <path d="M85.9,37c0.2,0.6-0.1,1.2-0.7,1.4c-0.6,0.2-1.3-0.1-1.5-0.6c-0.2-0.5,0.1-1.2,0.7-1.4C85,36.2,85.7,36.4,85.9,37z" fill="#000000" data-idx="29"></path>
  <path d="M89.7,29c0.4,0.7-1.4,2.2-3.8,3.4c-2.5,1.2-4.7,1.7-4.9,1.2c-0.3-0.5,1.4-2,3.8-3.4S89.4,28.4,89.7,29z" stroke="#000000" fill="none" data-idx="30"></path>

</g><g data-idx="31"></g></g><text data-watermark="true" text-anchor="middle" dominant-baseline="middle" stroke-opacity="0.1" fill="black" fill-opacity="0.1" stroke="white" stroke-width="1" font-size="5.0" x="50" y="50" data-idx="32" style="opacity: 1; font-size: 5px;">LOADING.IO</text></svg>
